<svg xmlns="http://www.w3.org/2000/svg" xmlns:xlink="http://www.w3.org/1999/xlink" width="100%" height="100%" viewBox="0 0 22.5 10" version="1.1">
  <g stroke="null" id="surface1">
   <path stroke="null" id="svg_1" fill-rule="nonzero" d="m-0.000774,0.491353l2.30859,0l0,9.16015l-2.30859,0l0,-9.16015zm0,0"/>
   <path stroke="null" id="svg_2" fill-rule="nonzero" d="m6.675006,4.710103c-0.19531,-1.39453 -0.30859,-2.16797 -0.32812,-2.32422c-0.09766,-0.7461 -0.19141,-1.39844 -0.27735,-1.95313c-0.20312,0 -1.19922,0 -2.99609,0l0,9.15625l2.02344,0l0.00781,-6.04297l0.85156,6.04297l1.44141,0l0.80859,-6.17968l0.00781,6.17968l2.01563,0l0,-9.15625l-3.01953,0l-0.53516,4.27735zm0,0"/>
   <path stroke="null" id="svg_3" fill-rule="nonzero" d="m14.046096,2.339003c0.02735,0.11719 0.03907,0.38282 0.03907,0.79297c0,0.35547 0,3.19922 0,3.55078c0,0.61328 -0.03907,0.98438 -0.11719,1.1211c-0.07422,0.14062 -0.28125,0.20703 -0.60938,0.20703c0,-0.60156 0,-5.41016 0,-6.01172c0.25,0 0.42188,0.02734 0.51172,0.08203c0.08985,0.05469 0.14844,0.14063 0.17578,0.25781zm1.04297,7.16016c0.27735,-0.0625 0.50391,-0.17188 0.69532,-0.32813c0.18359,-0.15625 0.3164,-0.375 0.39062,-0.65234c0.07813,-0.27344 0.12109,-0.82422 0.12109,-1.64453c0,-0.32031 0,-2.89453 0,-3.21484c0,-0.86719 -0.03125,-1.44922 -0.08593,-1.74219c-0.05078,-0.29688 -0.17969,-0.56641 -0.38282,-0.80469c-0.20703,-0.24219 -0.50781,-0.41406 -0.89843,-0.51953c-0.39453,-0.10938 -1.03907,-0.16016 -2.15625,-0.16016c-0.11719,0 -0.69141,0 -1.72657,0l0,9.15625l2.80079,0c0.64453,-0.01562 1.05859,-0.05078 1.24218,-0.08984zm0,0"/>
   <path stroke="null" id="svg_4" fill-rule="nonzero" d="m20.022666,8.131973c-0.03907,0.11328 -0.23047,0.17188 -0.36719,0.17188c-0.14063,0 -0.23047,-0.05469 -0.27734,-0.16797c-0.04688,-0.11328 -0.07032,-0.3711 -0.07032,-0.77344c0,-0.24219 0,-2.17969 0,-2.41797c0,-0.41797 0.02344,-0.67969 0.0625,-0.78125c0.03907,-0.10156 0.12891,-0.15625 0.26953,-0.15625c0.13672,0 0.32813,0.0586 0.375,0.17969c0.04688,0.11719 0.07422,0.37109 0.07422,0.75781c0,0.15625 0,0.9375 0,2.34375c-0.01562,0.48438 -0.03906,0.76563 -0.0664,0.84375zm-2.94141,1.37891l2.08203,0c0.08594,-0.35156 0.13281,-0.54297 0.14453,-0.58203c0.1875,0.23437 0.39453,0.41015 0.6211,0.52734c0.22656,0.11719 0.5664,0.17578 0.82812,0.17578c0.36328,0 0.67969,-0.09765 0.94531,-0.29687c0.26563,-0.19532 0.4375,-0.42969 0.50782,-0.69922c0.07031,-0.26953 0.10547,-0.67578 0.10547,-1.22656c0,-0.25782 0,-2.3125 0,-2.57032c0,-0.55078 -0.01172,-0.91406 -0.03516,-1.08203c-0.02344,-0.16797 -0.09375,-0.34375 -0.21094,-0.51953c-0.12109,-0.17578 -0.29297,-0.3125 -0.51562,-0.41016c-0.22657,-0.10156 -0.49219,-0.14843 -0.79688,-0.14843c-0.26562,0 -0.60547,0.05468 -0.83203,0.16015c-0.22656,0.10938 -0.43359,0.27344 -0.61719,0.49219c0,-0.19922 0,-1.19141 0,-2.97656l-2.22656,0l0,9.15625zm0,0"/>
  </g>
</svg>