<?xml version="1.0" encoding="UTF-8"?>
<svg xmlns="http://www.w3.org/2000/svg" xmlns:xlink="http://www.w3.org/1999/xlink" width="11pt" height="14pt" viewBox="0 0 11 14" version="1.1">
<g id="surface1">
<path style=" stroke:none;fill-rule:nonzero;fill:rgb(0%,0%,0%);fill-opacity:1;" d="M 9.972656 6.859375 C 9.972656 9.308594 7.902344 11.292969 5.351562 11.292969 C 2.800781 11.296875 0.730469 9.308594 0.726562 6.863281 C 0.726562 4.414062 2.792969 2.429688 5.347656 2.425781 C 7.898438 2.425781 9.96875 4.410156 9.972656 6.855469 "/>
<path style=" stroke:none;fill-rule:nonzero;fill:rgb(100%,80.784314%,20.784314%);fill-opacity:1;" d="M 5.429688 1.957031 C 2.511719 1.957031 0.148438 4.226562 0.148438 7.027344 C 0.148438 9.828125 2.515625 12.09375 5.4375 12.09375 C 8.355469 12.09375 10.71875 9.824219 10.71875 7.023438 L 10.71875 7.015625 C 10.71875 4.21875 8.347656 1.953125 5.429688 1.953125 Z M 5.40625 3.039062 C 7.691406 3.035156 9.546875 4.8125 9.550781 7.003906 L 9.550781 7.007812 C 9.550781 9.199219 7.695312 10.976562 5.410156 10.976562 C 3.125 10.976562 1.269531 9.199219 1.269531 7.011719 C 1.269531 4.820312 3.117188 3.039062 5.40625 3.039062 Z M 5.40625 3.039062 "/>
<path style=" stroke:none;fill-rule:nonzero;fill:rgb(100%,100%,100%);fill-opacity:1;" d="M 4.699219 10.300781 L 5.597656 9.4375 L 3.863281 7.773438 C 3.789062 7.703125 3.710938 7.613281 3.667969 7.515625 C 3.570312 7.316406 3.527344 7.007812 3.765625 6.78125 C 4.058594 6.5 4.445312 6.617188 4.824219 6.980469 L 6.492188 8.578125 L 7.394531 7.714844 L 5.652344 6.046875 C 5.578125 5.976562 5.496094 5.867188 5.453125 5.785156 C 5.335938 5.554688 5.34375 5.265625 5.558594 5.066406 C 5.855469 4.777344 6.246094 4.882812 6.675781 5.296875 L 8.296875 6.851562 L 9.195312 5.984375 L 7.445312 4.304688 C 6.554688 3.453125 5.71875 3.480469 5.148438 4.03125 C 4.925781 4.242188 4.792969 4.464844 4.726562 4.714844 C 4.671875 4.929688 4.65625 5.167969 4.703125 5.425781 L 4.691406 5.4375 C 4.253906 5.265625 3.753906 5.367188 3.371094 5.734375 C 2.859375 6.226562 2.875 6.746094 2.9375 7.046875 L 2.917969 7.070312 L 2.472656 6.722656 L 1.695312 7.46875 C 1.96875 7.710938 2.296875 8 2.671875 8.355469 Z M 4.699219 10.300781 "/>
</g>
</svg>
