<?xml version="1.0" encoding="UTF-8"?>
<svg xmlns="http://www.w3.org/2000/svg" xmlns:xlink="http://www.w3.org/1999/xlink" width="100%" height="100%" viewBox="0 0 28 9" version="1.1">
<g id="surface1">
<path style=" stroke:none;fill-rule:nonzero;" d="M 4.246094 4.410156 L 3.921875 4.40625 L 3.921875 0.03125 L 4.902344 0.03125 C 5.960938 0.03125 6.050781 0.0351562 6.308594 0.113281 C 6.726562 0.242188 7.046875 0.523438 7.222656 0.917969 C 7.304688 1.109375 7.339844 1.261719 7.347656 1.5 C 7.371094 2.039062 7.15625 2.511719 6.777344 2.757812 C 6.660156 2.832031 6.65625 2.839844 6.675781 2.867188 C 6.722656 2.957031 7.515625 4.410156 7.515625 4.414062 C 7.515625 4.421875 7.210938 4.421875 6.84375 4.421875 L 6.175781 4.421875 L 5.785156 3.722656 C 5.570312 3.335938 5.386719 3.015625 5.375 3 C 5.367188 2.976562 5.328125 2.96875 5.242188 2.960938 L 5.125 2.953125 L 5.140625 4.421875 L 4.855469 4.421875 C 4.699219 4.417969 4.429688 4.414062 4.246094 4.410156 Z M 5.695312 1.96875 C 5.96875 1.90625 6.109375 1.765625 6.125 1.539062 C 6.136719 1.378906 6.097656 1.269531 6.003906 1.171875 C 5.878906 1.039062 5.703125 0.996094 5.320312 0.992188 L 5.113281 0.992188 L 5.125 1.136719 C 5.132812 1.214844 5.136719 1.441406 5.136719 1.648438 L 5.136719 2.011719 L 5.367188 2 C 5.492188 1.992188 5.640625 1.980469 5.695312 1.96875 Z M 5.695312 1.96875 "/>
<path style=" stroke:none;fill-rule:nonzero;" d="M 8.824219 4.484375 C 8.460938 4.441406 8.144531 4.269531 7.882812 3.980469 C 7.589844 3.648438 7.433594 3.246094 7.417969 2.777344 C 7.410156 2.527344 7.425781 2.359375 7.480469 2.167969 C 7.695312 1.460938 8.289062 1.03125 9.132812 1 C 9.273438 0.992188 9.402344 0.996094 9.488281 1.007812 C 10.210938 1.113281 10.742188 1.648438 10.898438 2.433594 C 10.933594 2.601562 10.933594 2.980469 10.898438 3.136719 C 10.761719 3.789062 10.332031 4.242188 9.683594 4.414062 C 9.429688 4.480469 9.058594 4.511719 8.824219 4.484375 Z M 9.21875 3.960938 C 9.363281 3.917969 9.421875 3.835938 9.417969 3.683594 C 9.417969 3.632812 9.40625 3.558594 9.390625 3.523438 C 9.324219 3.332031 9.324219 3.332031 9.34375 3.296875 C 9.351562 3.273438 9.375 3.25 9.394531 3.242188 C 9.441406 3.214844 9.46875 3.238281 9.53125 3.335938 C 9.621094 3.480469 9.785156 3.640625 9.886719 3.695312 C 9.972656 3.734375 9.996094 3.738281 10.082031 3.734375 C 10.171875 3.726562 10.195312 3.722656 10.265625 3.667969 C 10.359375 3.601562 10.382812 3.546875 10.382812 3.410156 C 10.382812 3.273438 10.316406 3.160156 10.183594 3.070312 C 10.105469 3.019531 9.929688 2.960938 9.808594 2.953125 C 9.648438 2.933594 9.59375 2.90625 9.574219 2.835938 C 9.550781 2.761719 9.574219 2.703125 9.636719 2.65625 C 9.671875 2.628906 9.707031 2.621094 9.824219 2.617188 C 9.921875 2.609375 9.992188 2.597656 10.019531 2.578125 C 10.230469 2.464844 10.242188 2.082031 10.046875 1.9375 C 9.988281 1.898438 9.96875 1.890625 9.882812 1.890625 C 9.6875 1.890625 9.554688 2.027344 9.492188 2.292969 C 9.488281 2.316406 9.46875 2.351562 9.449219 2.371094 C 9.410156 2.417969 9.335938 2.425781 9.269531 2.390625 C 9.203125 2.351562 9.195312 2.273438 9.230469 2.042969 C 9.277344 1.761719 9.253906 1.640625 9.132812 1.5625 C 9.050781 1.511719 8.90625 1.496094 8.820312 1.523438 C 8.746094 1.550781 8.652344 1.65625 8.628906 1.734375 C 8.585938 1.898438 8.621094 2 8.785156 2.183594 C 8.859375 2.265625 8.914062 2.34375 8.921875 2.359375 C 8.945312 2.441406 8.859375 2.53125 8.773438 2.515625 C 8.726562 2.503906 8.679688 2.453125 8.605469 2.332031 C 8.484375 2.136719 8.320312 2.074219 8.15625 2.164062 C 8.015625 2.238281 7.980469 2.414062 8.074219 2.5625 C 8.125 2.648438 8.226562 2.703125 8.375 2.738281 C 8.589844 2.789062 8.652344 2.839844 8.59375 2.917969 C 8.5625 2.960938 8.558594 2.960938 8.457031 2.953125 C 8.304688 2.929688 8.246094 2.9375 8.164062 2.984375 C 8.074219 3.03125 8.039062 3.078125 8.011719 3.183594 C 7.964844 3.382812 8.097656 3.5625 8.296875 3.5625 C 8.40625 3.5625 8.480469 3.519531 8.617188 3.382812 C 8.761719 3.230469 8.789062 3.210938 8.835938 3.246094 C 8.890625 3.28125 8.898438 3.335938 8.863281 3.433594 C 8.777344 3.660156 8.855469 3.898438 9.027344 3.960938 C 9.101562 3.992188 9.132812 3.992188 9.21875 3.960938 Z M 12.554688 4.421875 C 12.003906 4.386719 11.707031 4.222656 11.542969 3.871094 C 11.429688 3.625 11.40625 3.417969 11.390625 2.6875 L 11.382812 2.191406 L 11.308594 2.191406 C 11.261719 2.191406 11.199219 2.1875 11.160156 2.183594 L 11.09375 2.175781 L 11.09375 1.101562 L 11.402344 1.101562 L 11.402344 0.167969 L 12.597656 0.167969 L 12.597656 1.101562 L 13.09375 1.101562 L 13.09375 2.207031 L 12.597656 2.207031 L 12.597656 2.703125 C 12.597656 3.167969 12.597656 3.203125 12.625 3.25 C 12.675781 3.335938 12.714844 3.347656 12.976562 3.347656 L 13.210938 3.347656 L 13.210938 4.4375 L 12.964844 4.4375 C 12.828125 4.433594 12.644531 4.429688 12.554688 4.421875 Z M 14.777344 4.40625 C 14.144531 4.339844 13.851562 4.070312 13.757812 3.445312 C 13.738281 3.335938 13.730469 3.136719 13.722656 2.753906 C 13.71875 2.457031 13.707031 2.207031 13.699219 2.199219 C 13.695312 2.191406 13.628906 2.183594 13.550781 2.179688 L 13.417969 2.175781 L 13.417969 1.085938 L 13.738281 1.085938 L 13.714844 0.152344 L 14.917969 0.152344 L 14.917969 1.101562 L 15.414062 1.101562 L 15.414062 2.191406 L 14.917969 2.191406 L 14.921875 2.695312 C 14.925781 3.152344 14.929688 3.203125 14.953125 3.242188 C 15.011719 3.332031 15.035156 3.34375 15.292969 3.347656 L 15.53125 3.351562 L 15.53125 4.421875 L 15.214844 4.421875 C 15.042969 4.421875 14.84375 4.414062 14.777344 4.40625 Z M 17.199219 3.738281 C 16.699219 3.667969 16.230469 3.398438 16.003906 3.042969 C 15.789062 2.714844 15.675781 2.335938 15.675781 1.929688 C 15.675781 1.339844 15.914062 0.867188 16.378906 0.535156 C 16.671875 0.332031 16.898438 0.261719 17.335938 0.25 C 17.558594 0.246094 17.617188 0.246094 17.738281 0.273438 C 17.96875 0.324219 18.171875 0.425781 18.339844 0.578125 C 18.492188 0.710938 18.660156 0.976562 18.742188 1.210938 C 18.847656 1.496094 18.902344 1.949219 18.867188 2.179688 L 18.859375 2.242188 L 17.800781 2.242188 C 17.21875 2.242188 16.746094 2.246094 16.746094 2.253906 C 16.746094 2.261719 16.769531 2.308594 16.800781 2.359375 C 16.933594 2.582031 17.148438 2.691406 17.445312 2.691406 C 17.667969 2.691406 17.875 2.628906 18.023438 2.519531 L 18.082031 2.476562 L 18.417969 2.8125 C 18.535156 2.929688 18.652344 3.046875 18.773438 3.167969 C 18.800781 3.199219 18.773438 3.238281 18.644531 3.351562 C 18.445312 3.523438 18.195312 3.640625 17.902344 3.707031 C 17.738281 3.742188 17.371094 3.757812 17.199219 3.738281 Z M 17.816406 1.566406 C 17.796875 1.40625 17.707031 1.289062 17.554688 1.210938 C 17.390625 1.128906 17.175781 1.136719 17.003906 1.230469 C 16.890625 1.292969 16.78125 1.4375 16.753906 1.574219 L 16.746094 1.617188 L 16.867188 1.621094 C 16.929688 1.625 17.175781 1.628906 17.40625 1.632812 L 17.828125 1.636719 Z M 19.140625 2.753906 L 19.140625 1.074219 L 20.324219 1.074219 L 20.324219 1.304688 C 20.324219 1.433594 20.328125 1.539062 20.332031 1.539062 C 20.339844 1.539062 20.375 1.496094 20.417969 1.445312 C 20.550781 1.269531 20.761719 1.113281 20.960938 1.039062 C 21.574219 0.8125 22.230469 1.324219 22.320312 2.101562 C 22.332031 2.179688 22.335938 2.65625 22.335938 3.328125 L 22.335938 4.421875 L 21.140625 4.421875 L 21.140625 2.433594 L 21.101562 2.351562 C 21.039062 2.214844 20.910156 2.136719 20.753906 2.132812 C 20.578125 2.132812 20.441406 2.246094 20.375 2.464844 C 20.347656 2.558594 20.347656 2.589844 20.34375 3.5 L 20.335938 4.4375 L 19.140625 4.4375 Z M 19.5625 8.410156 C 19.207031 8.359375 18.863281 8.195312 18.636719 7.964844 C 18.355469 7.679688 18.191406 7.234375 18.191406 6.769531 C 18.191406 6.285156 18.398438 5.859375 18.785156 5.535156 C 18.855469 5.476562 18.90625 5.429688 18.902344 5.425781 C 18.898438 5.421875 18.789062 5.429688 18.652344 5.4375 C 18.519531 5.453125 18.40625 5.453125 18.402344 5.445312 C 18.386719 5.433594 18.480469 5.300781 18.542969 5.246094 C 18.671875 5.140625 18.832031 5.101562 18.988281 5.140625 C 19.101562 5.175781 19.101562 5.140625 18.964844 4.984375 L 18.847656 4.847656 L 18.925781 4.777344 C 18.96875 4.738281 19.007812 4.703125 19.011719 4.703125 C 19.015625 4.703125 19.066406 4.78125 19.125 4.886719 C 19.179688 4.980469 19.238281 5.066406 19.242188 5.070312 C 19.25 5.074219 19.277344 5.039062 19.308594 4.992188 C 19.433594 4.789062 19.609375 4.699219 19.785156 4.75 C 19.894531 4.78125 19.894531 4.789062 19.785156 4.945312 C 19.726562 5.019531 19.679688 5.082031 19.679688 5.082031 C 19.679688 5.085938 19.796875 5.082031 19.941406 5.082031 C 20.441406 5.066406 20.78125 5.148438 21.0625 5.355469 C 21.15625 5.425781 21.300781 5.582031 21.371094 5.691406 C 21.429688 5.777344 21.578125 6.109375 21.613281 6.21875 C 21.6875 6.460938 21.699219 6.890625 21.636719 7.140625 C 21.59375 7.320312 21.480469 7.554688 21.367188 7.707031 C 21.113281 8.042969 20.699219 8.292969 20.234375 8.390625 C 20.089844 8.417969 19.703125 8.433594 19.5625 8.410156 Z M 23.40625 8.457031 C 23.085938 8.417969 22.800781 8.304688 22.535156 8.117188 C 22.234375 7.90625 22.003906 7.515625 21.902344 7.03125 C 21.871094 6.878906 21.863281 6.558594 21.882812 6.398438 C 21.960938 5.851562 22.273438 5.410156 22.789062 5.132812 C 22.882812 5.082031 22.964844 5.050781 23.101562 5.019531 C 23.261719 4.980469 23.308594 4.976562 23.585938 4.976562 C 23.859375 4.976562 23.90625 4.980469 24.019531 5.011719 C 24.535156 5.160156 24.894531 5.597656 25.027344 6.246094 C 25.054688 6.382812 25.0625 6.457031 25.0625 6.683594 L 25.0625 6.957031 L 22.941406 6.972656 L 22.980469 7.054688 C 23.109375 7.292969 23.335938 7.414062 23.644531 7.414062 C 23.867188 7.414062 24.097656 7.34375 24.234375 7.234375 L 24.28125 7.199219 L 24.636719 7.554688 L 24.996094 7.917969 L 24.941406 7.980469 C 24.617188 8.332031 23.972656 8.535156 23.40625 8.457031 Z M 24.027344 6.304688 C 23.992188 6.09375 23.839844 5.945312 23.613281 5.898438 C 23.316406 5.84375 23.023438 6.03125 22.957031 6.3125 C 22.949219 6.351562 22.949219 6.351562 23.039062 6.359375 C 23.09375 6.363281 23.339844 6.367188 23.585938 6.367188 L 24.039062 6.371094 Z M 26.289062 8.476562 C 26.121094 8.453125 25.902344 8.402344 25.757812 8.347656 C 25.554688 8.269531 25.242188 8.09375 25.242188 8.054688 C 25.242188 8.042969 25.671875 7.238281 25.691406 7.210938 C 25.695312 7.210938 25.785156 7.253906 25.898438 7.316406 C 26.199219 7.484375 26.335938 7.527344 26.550781 7.527344 C 26.71875 7.527344 26.832031 7.492188 26.882812 7.429688 C 26.957031 7.347656 26.925781 7.214844 26.816406 7.183594 C 26.789062 7.175781 26.667969 7.171875 26.542969 7.171875 C 26.386719 7.171875 26.289062 7.164062 26.214844 7.144531 C 25.800781 7.046875 25.476562 6.761719 25.34375 6.378906 C 25.316406 6.300781 25.3125 6.25 25.3125 6.097656 L 25.308594 5.910156 L 25.375 5.769531 C 25.554688 5.367188 25.90625 5.078125 26.335938 4.980469 C 26.453125 4.953125 26.515625 4.949219 26.703125 4.957031 C 26.945312 4.964844 27.09375 4.992188 27.320312 5.074219 C 27.550781 5.15625 27.863281 5.316406 27.863281 5.347656 C 27.863281 5.355469 27.773438 5.527344 27.660156 5.722656 C 27.503906 6.003906 27.453125 6.089844 27.433594 6.082031 C 27.351562 6.042969 26.984375 5.917969 26.886719 5.894531 C 26.820312 5.878906 26.703125 5.867188 26.625 5.867188 C 26.46875 5.867188 26.421875 5.878906 26.363281 5.957031 C 26.324219 6.007812 26.332031 6.109375 26.378906 6.15625 C 26.414062 6.1875 26.425781 6.1875 26.640625 6.195312 C 27.183594 6.207031 27.523438 6.332031 27.765625 6.613281 C 27.910156 6.777344 27.984375 6.972656 28 7.203125 C 28.019531 7.542969 27.90625 7.832031 27.664062 8.082031 C 27.496094 8.25 27.429688 8.292969 27.210938 8.378906 C 26.96875 8.464844 26.5625 8.507812 26.289062 8.476562 Z M 17.289062 8.367188 C 17.160156 8.359375 16.945312 8.328125 16.851562 8.304688 C 16.410156 8.183594 16.199219 7.914062 16.113281 7.371094 C 16.105469 7.296875 16.097656 7.101562 16.089844 6.699219 L 16.078125 6.140625 L 16.007812 6.132812 C 15.960938 6.128906 15.910156 6.125 15.863281 6.125 L 15.78125 6.125 L 15.78125 5.035156 L 16.097656 5.035156 L 16.09375 4.640625 C 16.09375 4.425781 16.089844 4.214844 16.085938 4.171875 L 16.082031 4.097656 L 17.289062 4.097656 L 17.289062 5.042969 L 17.785156 5.042969 L 17.785156 6.148438 L 17.289062 6.148438 L 17.289062 6.621094 C 17.289062 6.914062 17.292969 7.109375 17.296875 7.132812 C 17.3125 7.1875 17.367188 7.25 17.410156 7.265625 C 17.433594 7.28125 17.503906 7.285156 17.675781 7.285156 L 17.90625 7.285156 L 17.90625 8.375 L 17.628906 8.371094 C 17.480469 8.371094 17.324219 8.371094 17.289062 8.367188 Z M 13.234375 8.472656 C 12.988281 8.433594 12.742188 8.289062 12.507812 8.046875 C 12.355469 7.890625 12.277344 7.773438 12.191406 7.597656 C 12.070312 7.335938 12.023438 7.128906 12.011719 6.8125 C 12.003906 6.511719 12.039062 6.28125 12.125 6.007812 C 12.21875 5.730469 12.308594 5.570312 12.464844 5.402344 C 12.808594 5.03125 13.21875 4.890625 13.613281 4.996094 C 13.839844 5.058594 14.023438 5.175781 14.226562 5.375 L 14.316406 5.46875 L 14.316406 5.058594 L 15.4375 5.058594 L 15.4375 8.386719 L 14.316406 8.386719 L 14.316406 8.175781 C 14.316406 8.0625 14.3125 7.96875 14.308594 7.96875 C 14.304688 7.96875 14.257812 8.011719 14.207031 8.066406 C 13.921875 8.378906 13.558594 8.527344 13.234375 8.472656 Z M 13.953125 7.25 C 14.183594 7.125 14.320312 6.769531 14.238281 6.492188 C 14.1875 6.335938 14.0625 6.210938 13.902344 6.15625 C 13.742188 6.097656 13.632812 6.105469 13.492188 6.175781 C 13.304688 6.269531 13.199219 6.460938 13.199219 6.695312 C 13.199219 6.859375 13.25 7 13.359375 7.113281 C 13.523438 7.289062 13.769531 7.347656 13.953125 7.25 Z M 10.53125 8.164062 C 10.527344 8.039062 10.523438 7.671875 10.523438 7.355469 C 10.523438 7.039062 10.519531 6.6875 10.515625 6.570312 C 10.507812 6.332031 10.5 6.300781 10.417969 6.210938 C 10.324219 6.113281 10.160156 6.074219 10.035156 6.125 C 9.921875 6.171875 9.839844 6.292969 9.8125 6.441406 C 9.804688 6.484375 9.800781 6.8125 9.800781 7.4375 L 9.800781 8.375 L 9.203125 8.375 C 8.875 8.375 8.601562 8.375 8.601562 8.371094 C 8.601562 8.371094 8.597656 7.921875 8.59375 7.375 L 8.589844 6.386719 L 8.554688 6.320312 C 8.511719 6.234375 8.460938 6.183594 8.382812 6.144531 C 8.335938 6.113281 8.320312 6.109375 8.230469 6.109375 C 8.148438 6.109375 8.125 6.117188 8.089844 6.132812 C 7.988281 6.1875 7.917969 6.3125 7.882812 6.46875 C 7.871094 6.542969 7.867188 6.625 7.871094 7.46875 L 7.875 8.386719 L 6.675781 8.386719 L 6.667969 7.390625 C 6.664062 6.847656 6.660156 6.089844 6.660156 5.710938 L 6.660156 5.023438 L 7.847656 5.023438 L 7.851562 5.179688 C 7.855469 5.316406 7.859375 5.339844 7.875 5.34375 C 7.882812 5.34375 7.925781 5.304688 7.980469 5.246094 C 8.089844 5.132812 8.183594 5.070312 8.351562 5.011719 C 8.800781 4.847656 9.242188 4.960938 9.574219 5.320312 L 9.664062 5.421875 L 9.695312 5.371094 C 9.824219 5.128906 10.195312 4.957031 10.574219 4.957031 C 10.894531 4.957031 11.175781 5.074219 11.375 5.285156 C 11.582031 5.5 11.707031 5.835938 11.726562 6.230469 C 11.730469 6.292969 11.734375 6.804688 11.738281 7.367188 L 11.742188 8.398438 L 10.539062 8.398438 Z M 4.328125 8.433594 C 4.082031 8.394531 3.898438 8.320312 3.703125 8.179688 C 3.234375 7.847656 2.941406 7.207031 2.96875 6.570312 C 3 5.792969 3.472656 5.203125 4.210938 5.019531 C 4.53125 4.941406 4.902344 4.925781 5.183594 4.984375 C 5.683594 5.09375 6.109375 5.457031 6.328125 5.957031 C 6.542969 6.441406 6.550781 6.996094 6.34375 7.460938 C 6.117188 7.980469 5.648438 8.320312 5.007812 8.421875 C 4.859375 8.449219 4.445312 8.457031 4.328125 8.433594 Z M 4.863281 7.242188 C 5.042969 7.203125 5.1875 7.085938 5.265625 6.917969 C 5.308594 6.832031 5.308594 6.828125 5.308594 6.714844 C 5.308594 6.585938 5.292969 6.492188 5.246094 6.394531 C 5.097656 6.070312 4.726562 5.945312 4.414062 6.109375 C 4.261719 6.1875 4.125 6.378906 4.097656 6.558594 C 4.054688 6.84375 4.253906 7.179688 4.515625 7.257812 C 4.570312 7.277344 4.753906 7.265625 4.863281 7.242188 Z M 4.863281 7.242188 "/>
<path style=" stroke:none;fill-rule:nonzero;" d="M 1.117188 6.800781 L 1.117188 5.210938 L 0.0351562 5.210938 L 0.0351562 3.976562 L 1.671875 3.984375 C 2.574219 3.988281 3.316406 3.996094 3.320312 3.996094 C 3.324219 4 3.328125 4.269531 3.328125 4.601562 L 3.328125 5.199219 L 2.273438 5.199219 L 2.273438 8.386719 L 1.117188 8.386719 Z M 1.117188 6.800781 "/>
</g>
</svg>
